<?xml version="1.0" encoding="utf-8"?>
<!-- Generator: Adobe Illustrator 16.0.0, SVG Export Plug-In . SVG Version: 6.00 Build 0)  -->
<!DOCTYPE svg PUBLIC "-//W3C//DTD SVG 1.1//EN" "http://www.w3.org/Graphics/SVG/1.1/DTD/svg11.dtd">
<svg version="1.1" id="Layer_1" xmlns="http://www.w3.org/2000/svg" xmlns:xlink="http://www.w3.org/1999/xlink" x="0px" y="0px"
	 width="150px" height="18px" viewBox="0 0 150 18" enable-background="new 0 0 150 18" xml:space="preserve">
<path fill="#395D4F" d="M87.462,5.516c-0.103-0.338-0.398-0.574-0.738-0.586c0,0-0.102-0.004-0.285-0.004
	c-0.943,0-3.3,0.093-5.676,0.904c-0.264-0.646-0.854-1.943-1.727-3.065c-1.188-1.527-3.069-2.615-3.149-2.661
	c-0.003-0.002-0.006-0.004-0.009-0.006c-0.013-0.007-0.025-0.013-0.038-0.019c-0.012-0.006-0.024-0.012-0.036-0.016
	c-0.01-0.005-0.02-0.009-0.03-0.013c-0.015-0.006-0.031-0.012-0.046-0.017c-0.007-0.002-0.014-0.004-0.021-0.005
	c-0.019-0.006-0.038-0.011-0.056-0.014c-0.005-0.002-0.01-0.003-0.016-0.004c-0.021-0.004-0.041-0.007-0.061-0.009
	c-0.007-0.001-0.015-0.001-0.022-0.001C75.535,0,75.517,0,75.499,0c-0.012,0-0.024,0-0.037,0.001
	c-0.013,0.001-0.026,0.001-0.04,0.002c-0.016,0.002-0.031,0.005-0.047,0.008c-0.01,0.001-0.02,0.002-0.029,0.005
	c-0.016,0.003-0.031,0.007-0.046,0.011c-0.01,0.003-0.021,0.006-0.031,0.008c-0.013,0.004-0.025,0.01-0.039,0.015
	c-0.012,0.005-0.025,0.009-0.037,0.015c-0.01,0.004-0.021,0.009-0.03,0.014c-0.015,0.007-0.029,0.014-0.043,0.021
	c-0.003,0.002-0.005,0.003-0.008,0.005c-0.08,0.046-1.962,1.134-3.149,2.661c-0.872,1.122-1.462,2.42-1.726,3.065
	c-2.376-0.812-4.733-0.904-5.675-0.904c-0.184,0-0.285,0.004-0.285,0.004c-0.34,0.012-0.635,0.248-0.738,0.585
	c-0.103,0.338,0.008,0.709,0.278,0.924c0.017,0.014,1.75,1.41,2.849,3.376c0.426,0.763,0.713,1.685,0.99,2.578
	c0.342,1.101,0.665,2.141,1.244,2.971C70.563,17.744,73.842,18,75.174,18c0.155,0,0.267-0.004,0.326-0.006
	C75.559,17.996,75.67,18,75.825,18c0,0,0,0,0,0c1.333,0,4.612-0.256,6.274-2.637c0.578-0.83,0.901-1.87,1.244-2.971
	c0.277-0.894,0.564-1.815,0.99-2.578c1.098-1.966,2.832-3.362,2.849-3.375C87.453,6.224,87.565,5.854,87.462,5.516z M73.215,3.823
	c0.694-0.893,1.729-1.637,2.285-2.002c0.556,0.363,1.587,1.105,2.284,2.002c0.729,0.938,1.244,2.061,1.48,2.629
	c-1.752,0.87-3.019,2.082-3.765,3.592c-0.746-1.51-2.014-2.722-3.765-3.592C71.969,5.886,72.482,4.768,73.215,3.823z M70.203,14.37
	c-0.428-0.611-0.713-1.527-1.014-2.496c-0.304-0.978-0.618-1.987-1.131-2.905c-0.487-0.874-1.072-1.639-1.611-2.253
	c2.932,0.322,7.847,1.571,8.209,6.32c0.015,0.205,0.028,0.416,0.038,0.631c-0.042,0.96-0.036,1.952-0.023,2.637
	C73.505,16.239,71.275,15.907,70.203,14.37z M82.941,8.969c-0.513,0.918-0.827,1.928-1.131,2.905
	c-0.301,0.969-0.586,1.885-1.014,2.496c-1.072,1.538-3.304,1.869-4.468,1.934c0.013-0.686,0.019-1.677-0.023-2.637
	c0.011-0.215,0.022-0.427,0.038-0.631c0.362-4.749,5.277-5.998,8.209-6.32C84.014,7.33,83.429,8.095,82.941,8.969z"/>
<line fill="none" stroke="#395D4F" stroke-miterlimit="10" x1="0" y1="9" x2="60" y2="9"/>
<line fill="none" stroke="#395D4F" stroke-miterlimit="10" x1="90" y1="9" x2="150" y2="9"/>
</svg>
